# xmcd
#
# Track frame offsets: 
#        150
#        13217
#        29090
#        40119
#        53199
#        66919
#        86220
#        104264
#        120296
#        133628
#
# Disc length: 2034 seconds
#
# Revision: 0
# Processed by: cddbd v1.5.2PL0 Copyright (c) Steve Scherf et al.
# Submitted via: ExactAudioCopy v1.2
#
DISCID=8807f00a
DTITLE=Lightnin Rod and the Thunderbolts - Delta Time
DYEAR=2018
DGENRE=Blues
TTITLE0=Delta Time
TTITLE1=Addicted to Something
TTITLE2=When I Loved You
TTITLE3=What I Done Forgot
TTITLE4=Low Down Funky Blues
TTITLE5=Out of the Darkness
TTITLE6=What Was I Thinking
TTITLE7=Broken Wing (For Jimi)
TTITLE8=When Love Comes Calling
TTITLE9=Life of a Bluesman
EXTD=
EXTT0=
EXTT1=
EXTT2=
EXTT3=
EXTT4=
EXTT5=
EXTT6=
EXTT7=
EXTT8=
EXTT9=
PLAYORDER=
